HIERARCHY
ROOT Hips
{
	OFFSET 0.00000 0.00000 0.00000
	CHANNELS 6 Xposition Yposition Zposition Zrotation Yrotation Xrotation 
	JOINT LHipJoint
	{
		OFFSET 0 0 0
		CHANNELS 3 Zrotation Yrotation Xrotation
		JOINT LeftHip
		{
			OFFSET 2.36090 -1.39315 1.24752
			CHANNELS 3 Zrotation Yrotation Xrotation
			JOINT LeftKnee
			{
				OFFSET 2.06810 -5.68207 0.00000
				CHANNELS 3 Zrotation Yrotation Xrotation
				JOINT LeftAnkle
				{
					OFFSET 2.46631 -6.77613 0.00000
					CHANNELS 3 Zrotation Yrotation Xrotation
					JOINT LeftToe
					{
						OFFSET 0.26031 -0.71520 1.99545
						CHANNELS 3 Zrotation Yrotation Xrotation
						End Site
						{
							OFFSET 0.00000 -0.00000 1.05957
						}
					}
				}
			}
		}
	}
	JOINT RHipJoint
	{
		OFFSET 0 0 0
		CHANNELS 3 Zrotation Yrotation Xrotation
		JOINT RightHip
		{
			OFFSET -2.25243 -1.39315 1.24752
			CHANNELS 3 Zrotation Yrotation Xrotation
			JOINT RightKnee
			{
				OFFSET -2.17343 -5.97145 0.00000
				CHANNELS 3 Zrotation Yrotation Xrotation
				JOINT RightAnkle
				{
					OFFSET -2.52372 -6.93386 0.00000
					CHANNELS 3 Zrotation Yrotation Xrotation
					JOINT RightToe
					{
						OFFSET -0.22538 -0.61923 2.11447
						CHANNELS 3 Zrotation Yrotation Xrotation
						End Site
						{
							OFFSET -0.00000 -0.00000 1.10506
						}
					}
				}
			}
		}
	}
	JOINT lowerback
	{
		OFFSET 0 0 0
		CHANNELS 3 Zrotation Yrotation Xrotation
		JOINT Chest
		{
			OFFSET 0.01594 2.13103 0.08007
			CHANNELS 3 Zrotation Yrotation Xrotation
			JOINT Chest2
			{
				OFFSET 0.01393 2.09723 0.18338
				CHANNELS 3 Zrotation Yrotation Xrotation
				JOINT lowerneck
				{
					OFFSET 0 0 0
					CHANNELS 3 Zrotation Yrotation Xrotation
					JOINT Neck
					{
						OFFSET 0.05351 1.38915 0.32494
						CHANNELS 3 Zrotation Yrotation Xrotation
						JOINT Head
						{
							OFFSET 0.00711 1.45992 -0.21666
							CHANNELS 3 Zrotation Yrotation Xrotation
							End Site
							{
								OFFSET -0.00433 1.47702 -0.11056
							}
						}
					}
				}
				JOINT LeftCollar
				{
					OFFSET 0 0 0
					CHANNELS 3 Zrotation Yrotation Xrotation
					JOINT LeftShoulder
					{
						OFFSET 2.87198 0.92249 0.11132
CHANNELS 3 Zrotation Xrotation Yrotation
						JOINT LeftElbow
						{
OFFSET 0 -5.527310 0.000000
CHANNELS 3 Zrotation Xrotation Yrotation
							JOINT LeftWrist
							{
OFFSET 0 -3.110590 0.000000
CHANNELS 3 Zrotation Xrotation Yrotation
								JOINT lhand
								{
									OFFSET 0 0 0
CHANNELS 3 Zrotation Xrotation Yrotation
									JOINT LFingers
									{
OFFSET 0 -0.419630 0.000000
CHANNELS 3 Zrotation Xrotation Yrotation
										End Site
										{
OFFSET 0 -0.338310 0.000000
										}
									}
								}
								JOINT LThumb
								{
OFFSET 0 0.000000 0.000000
CHANNELS 3 Zrotation Xrotation Yrotation
									End Site
									{
OFFSET 0 -0.343480 0.343480
									}
								}
							}
						}
					}
				}
				JOINT RightCollar
				{
					OFFSET 0 0 0
					CHANNELS 3 Zrotation Yrotation Xrotation
					JOINT RightShoulder
					{
						OFFSET -2.94710 0.68072 0.32187
CHANNELS 3 Zrotation Xrotation Yrotation
						JOINT RightElbow
						{
OFFSET 0 -5.253960 -0.000000
CHANNELS 3 Zrotation Xrotation Yrotation
							JOINT RightWrist
							{
OFFSET 0 -3.105670 0.000000
CHANNELS 3 Zrotation Xrotation Yrotation
								JOINT rhand
								{
									OFFSET 0 0 0
CHANNELS 3 Zrotation Xrotation Yrotation
									JOINT RFingers
									{
OFFSET 0 -0.498680 0.000000
CHANNELS 3 Zrotation Xrotation Yrotation
										End Site
										{
OFFSET 0 -0.402040 0.000000
										}
									}
								}
								JOINT RThumb
								{
OFFSET 0 0.000000 0.000000
CHANNELS 3 Zrotation Xrotation Yrotation
									End Site
									{
OFFSET 0 -0.408180 0.408180
									}
								}
							}
						}
					}
				}
			}
		}
	}
}
MOTION
Frames: 11
Frame Time: 0.008333333333333333
5.926436 14.059468 -1.146711 -1.090624 -4.751275 35.719372 0.000000 0.000000 0.000000 -5.924877 -20.911959 -78.546620 12.997900 18.781396 69.118976 1.696500 0.503357 -24.828077 0.510754 -4.580981 -12.717201 0.000000 0.000000 0.000000 5.977471 23.117359 -77.784955 -14.477659 -19.252587 73.658055 -1.956555 -4.631984 -28.408774 -0.423655 4.177366 -11.576220 1.480313 -0.201313 -2.695397 0.575462 -0.220092 -9.743625 -0.205955 -0.210157 -8.729421 4.842004 2.288069 -32.074720 -0.443271 1.074807 14.080812 -0.740087 0.724838 9.590401 0.000000 0.000000 0.000000 12.102420 -28.327288 -23.959411 124.181407 -55.088624 89.113841 -19.482262 -19.664916 -18.369209 0.000000 0.000000 0.000000 -7.125000 0.000000 0.000000 -42.170974 43.982661 -1.312750 0.000000 0.000000 0.000000 -5.001841 -28.799105 33.726536 -119.261512 -56.503550 -85.043748 13.844102 12.472811 16.251205 0.000000 0.000000 0.000000 7.125000 0.000000 0.000000 36.730907 42.973538 2.159319
5.927107 14.060005 -1.146532 -1.091071 -4.747024 35.721117 0.000000 0.000000 0.000000 -5.931230 -20.909677 -78.542459 12.994499 18.780188 69.108327 1.696500 0.493872 -24.824632 0.510262 -4.578744 -12.710803 0.000000 0.000000 0.000000 5.978813 23.111677 -77.781465 -14.475377 -19.251960 73.651165 -1.956466 -4.630552 -28.407521 -0.423566 4.177097 -11.575459 1.477539 -0.201940 -2.691191 0.573985 -0.221076 -9.741075 -0.205866 -0.210470 -8.729063 4.846613 2.292006 -32.070559 -0.451414 1.080221 14.064437 -0.742861 0.726315 9.584003 0.000000 0.000000 0.000000 12.101659 -28.327064 -23.959232 124.180020 -55.089071 89.112722 -19.487586 -19.666348 -18.372028 0.000000 0.000000 0.000000 -7.125000 0.000000 0.000000 -42.176522 43.984182 -1.311050 0.000000 0.000000 0.000000 -4.997322 -28.800716 33.737408 -119.254935 -56.505250 -85.038245 13.847905 12.482833 16.249416 0.000000 0.000000 0.000000 7.125000 0.000000 0.000000 36.732920 42.971614 2.161556
5.927778 14.060566 -1.146341 -1.091412 -4.742750 35.722910 0.000000 0.000000 0.000000 -5.937607 -20.907644 -78.538250 12.991064 18.778956 69.097620 1.696476 0.484778 -24.821235 0.509841 -4.576827 -12.705353 0.000000 0.000000 0.000000 5.979930 23.105983 -77.778035 -14.473095 -19.251322 73.644251 -1.956341 -4.629346 -28.406150 -0.423488 4.176853 -11.574758 1.474552 -0.202637 -2.687164 0.572687 -0.222132 -9.738311 -0.205492 -0.210795 -8.728350 4.851493 2.295955 -32.067761 -0.460114 1.085599 14.049129 -0.745872 0.727732 9.578210 0.000000 0.000000 0.000000 12.100851 -28.327315 -23.959041 124.178099 -55.089684 89.111153 -19.492934 -19.668076 -18.374965 0.000000 0.000000 0.000000 -7.125000 0.000000 0.000000 -42.182188 43.985798 -1.309231 0.000000 0.000000 0.000000 -4.993147 -28.802670 33.748079 -119.248144 -56.506998 -85.032576 13.851648 12.491705 16.248171 0.000000 0.000000 0.000000 7.125000 0.000000 0.000000 36.735159 42.970129 2.163330
5.928449 14.061192 -1.146117 -1.091457 -4.738410 35.724834 0.000000 0.000000 0.000000 -5.944050 -20.906302 -78.533910 12.987529 18.777659 69.086748 1.696387 0.476770 -24.817969 0.509617 -4.575798 -12.702535 0.000000 0.000000 0.000000 5.980423 23.100256 -77.774769 -14.470814 -19.250651 73.637271 -1.956117 -4.628764 -28.404449 -0.423443 4.176674 -11.574221 1.470972 -0.203532 -2.683629 0.571881 -0.223385 -9.734955 -0.204329 -0.211153 -8.726649 4.857131 2.299937 -32.068745 -0.470360 1.090878 14.036780 -0.749541 0.728985 9.574093 0.000000 0.000000 0.000000 12.099912 -28.328881 -23.958817 124.174699 -55.090758 89.108335 -19.498348 -19.670626 -18.378231 0.000000 0.000000 0.000000 -7.125000 0.000000 0.000000 -42.188184 43.987677 -1.307083 0.000000 0.000000 0.000000 -4.989925 -28.805579 33.758190 -119.240762 -56.508877 -85.026447 13.855228 12.497387 16.248440 0.000000 0.000000 0.000000 7.125000 0.000000 0.000000 36.738022 42.969860 2.163823
5.929120 14.061816 -1.145893 -1.091495 -4.734045 35.726796 0.000000 0.000000 0.000000 -5.950444 -20.905003 -78.529635 12.983998 18.776363 69.075882 1.696296 0.468773 -24.814692 0.509393 -4.574775 -12.699725 0.000000 0.000000 0.000000 5.980888 23.094532 -77.771567 -14.468536 -19.249983 73.630308 -1.955889 -4.628216 -28.402736 -0.423400 4.176495 -11.573684 1.467384 -0.204440 -2.680148 0.571099 -0.224657 -9.731572 -0.203133 -0.211519 -8.724888 4.862738 2.303927 -32.069824 -0.480568 1.096166 14.024470 -0.753189 0.730244 9.570007 0.000000 0.000000 0.000000 12.098976 -28.330543 -23.958577 124.171277 -55.091840 89.105500 -19.503774 -19.673240 -18.381571 0.000000 0.000000 0.000000 -7.125000 0.000000 0.000000 -42.194230 43.989614 -1.304862 0.000000 0.000000 0.000000 -4.986733 -28.808548 33.768287 -119.233381 -56.510756 -85.020317 13.858745 12.502975 16.248715 0.000000 0.000000 0.000000 7.125000 0.000000 0.000000 36.740843 42.969608 2.164296
5.929791 14.062353 -1.145670 -1.091316 -4.728855 35.730018 0.000000 0.000000 0.000000 -5.955276 -20.905092 -78.527442 12.980598 18.775110 69.065234 1.696162 0.461167 -24.811068 0.509170 -4.573925 -12.697220 0.000000 0.000000 0.000000 5.980485 23.088894 -77.770448 -14.466388 -19.249401 73.623865 -1.955531 -4.628753 -28.400588 -0.423400 4.176316 -11.573147 1.463491 -0.205782 -2.678403 0.571054 -0.226581 -9.727277 -0.200896 -0.212145 -8.721130 4.867346 2.308177 -32.073985 -0.489561 1.101714 14.013419 -0.756187 0.731721 9.566875 0.000000 0.000000 0.000000 12.098171 -28.335330 -23.957817 124.167161 -55.093182 89.102144 -19.509590 -19.677938 -18.387298 0.000000 0.000000 0.000000 -7.125000 0.000000 0.000000 -42.201925 43.993417 -1.300254 0.000000 0.000000 0.000000 -4.984496 -28.813515 33.777907 -119.226043 -56.512635 -85.014187 13.860267 12.505480 16.249207 0.000000 0.000000 0.000000 7.125000 0.000000 0.000000 36.742274 42.969876 2.164162
5.930462 14.062890 -1.145446 -1.091137 -4.723665 35.733239 0.000000 0.000000 0.000000 -5.960108 -20.905182 -78.525250 12.977198 18.773857 69.054585 1.696028 0.453561 -24.807444 0.508946 -4.573074 -12.694714 0.000000 0.000000 0.000000 5.980083 23.083257 -77.769330 -14.464241 -19.248819 73.617422 -1.955173 -4.629290 -28.398441 -0.423400 4.176137 -11.572610 1.459599 -0.207125 -2.676658 0.571009 -0.228505 -9.722981 -0.198659 -0.212771 -8.717371 4.871954 2.312428 -32.078146 -0.498554 1.107261 14.002368 -0.759185 0.733197 9.563743 0.000000 0.000000 0.000000 12.097365 -28.340118 -23.957056 124.163045 -55.094525 89.098789 -19.515406 -19.682636 -18.393025 0.000000 0.000000 0.000000 -7.125000 0.000000 0.000000 -42.209621 43.997220 -1.295646 0.000000 0.000000 0.000000 -4.982259 -28.818481 33.787526 -119.218706 -56.514514 -85.008058 13.861788 12.507986 16.249699 0.000000 0.000000 0.000000 7.125000 0.000000 0.000000 36.743706 42.970145 2.164028
5.931133 14.063427 -1.145293 -1.090638 -4.718333 35.737705 0.000000 0.000000 0.000000 -5.964371 -20.906267 -78.524764 12.973833 18.772675 69.044186 1.695787 0.447342 -24.803429 0.509007 -4.573398 -12.695622 0.000000 0.000000 0.000000 5.978258 23.077762 -77.770380 -14.462307 -19.248309 73.611584 -1.954816 -4.629222 -28.396080 -0.423151 4.174927 -11.569229 1.455066 -0.208787 -2.676656 0.571640 -0.230891 -9.718260 -0.195391 -0.213505 -8.712120 4.874216 2.316607 -32.084014 -0.505485 1.113129 13.991921 -0.761045 0.734993 9.561038 0.000000 0.000000 0.000000 12.096560 -28.346967 -23.955975 124.157328 -55.096329 89.094082 -19.522041 -19.688080 -18.399854 0.000000 0.000000 0.000000 -7.125000 0.000000 0.000000 -42.218596 44.001769 -1.290113 0.000000 0.000000 0.000000 -4.981089 -28.824976 33.796647 -119.209626 -56.516856 -85.000470 13.860998 12.508927 16.249836 0.000000 0.000000 0.000000 7.125000 0.000000 0.000000 36.743182 42.970342 2.163751
5.931805 14.063964 -1.145159 -1.090056 -4.712964 35.742492 0.000000 0.000000 0.000000 -5.968488 -20.907609 -78.524720 12.970477 18.771512 69.033851 1.695518 0.441481 -24.799312 0.509141 -4.574024 -12.697412 0.000000 0.000000 0.000000 5.976065 23.072303 -77.771991 -14.460427 -19.247817 73.605902 -1.954458 -4.628998 -28.393664 -0.422838 4.173450 -11.565112 1.450368 -0.210532 -2.677103 0.572445 -0.233397 -9.713428 -0.191856 -0.214265 -8.706482 4.875871 2.320768 -32.090322 -0.511883 1.119080 13.981631 -0.762611 0.736873 9.558443 0.000000 0.000000 0.000000 12.095755 -28.354350 -23.954812 124.151199 -55.098253 89.089026 -19.528886 -19.693718 -18.406968 0.000000 0.000000 0.000000 -7.125000 0.000000 0.000000 -42.227903 44.006512 -1.284341 0.000000 0.000000 0.000000 -4.980194 -28.831866 33.805640 -119.200096 -56.519317 -84.992507 13.859611 12.509464 16.249880 0.000000 0.000000 0.000000 7.125000 0.000000 0.000000 36.742153 42.970521 2.163438
5.932476 14.064475 -1.145000 -1.089249 -4.707770 35.747755 0.000000 0.000000 0.000000 -5.971752 -20.910153 -78.525451 12.967197 18.770324 69.023666 1.695175 0.436746 -24.795021 0.509175 -4.574150 -12.697774 0.000000 0.000000 0.000000 5.972996 23.067095 -77.774653 -14.458673 -19.247325 73.600570 -1.954025 -4.629526 -28.391148 -0.422625 4.172474 -11.562424 1.445170 -0.212427 -2.678702 0.573626 -0.236078 -9.708170 -0.187646 -0.215051 -8.699668 4.876775 2.325254 -32.097758 -0.517580 1.125556 13.972067 -0.763701 0.739052 9.556298 0.000000 0.000000 0.000000 12.094649 -28.362308 -23.953398 124.146196 -55.099851 89.084922 -19.535306 -19.699506 -18.414833 0.000000 0.000000 0.000000 -7.125000 0.000000 0.000000 -42.237359 44.011956 -1.277668 0.000000 0.000000 0.000000 -4.979675 -28.839207 33.814258 -119.190942 -56.521677 -84.984893 13.858249 12.509450 16.248172 0.000000 0.000000 0.000000 7.125000 0.000000 0.000000 36.740223 42.969273 2.164602
5.933147 14.064968 -1.144821 -1.088265 -4.702715 35.753393 0.000000 0.000000 0.000000 -5.974347 -20.913643 -78.526793 12.963976 18.769116 69.013599 1.694772 0.432899 -24.790591 0.509130 -4.573881 -12.697014 0.000000 0.000000 0.000000 5.969238 23.062084 -77.778143 -14.457018 -19.246832 73.595515 -1.953532 -4.630645 -28.388553 -0.422491 4.171893 -11.560858 1.439577 -0.214440 -2.681208 0.575103 -0.238896 -9.702577 -0.182903 -0.215856 -8.691928 4.877088 2.329997 -32.106080 -0.522725 1.132447 13.963074 -0.764417 0.741468 9.554509 0.000000 0.000000 0.000000 12.093307 -28.370719 -23.951788 124.142080 -55.101193 89.081566 -19.541390 -19.705411 -18.423289 0.000000 0.000000 0.000000 -7.125000 0.000000 0.000000 -42.246934 44.017951 -1.270286 0.000000 0.000000 0.000000 -4.979451 -28.846903 33.822580 -119.182083 -56.523959 -84.977556 13.856907 12.509002 16.245085 0.000000 0.000000 0.000000 7.125000 0.000000 0.000000 36.737583 42.966902 2.166929
